<mxfile host="app.diagrams.net" modified="2023-08-19T03:32:39.523Z" agent="Mozilla/5.0 (Windows NT 10.0; Win64; x64) AppleWebKit/537.36 (KHTML, like Gecko) Chrome/115.0.0.0 Safari/537.36" etag="zSg2B1RX-Bj2dFxrfZh5" version="21.6.8" type="google" pages="5">
  <diagram name="U4ACT2Main" id="bxEgWun4QLtOwx8SykbE">
    <mxGraphModel grid="1" page="1" gridSize="10" guides="1" tooltips="1" connect="1" arrows="1" fold="1" pageScale="1" pageWidth="3500" pageHeight="3300" math="0" shadow="0">
      <root>
        <mxCell id="0" />
        <mxCell id="1" parent="0" />
        <mxCell id="aHM7PjvkRRjM55gxEJ2z-1" value="Start" style="ellipse;whiteSpace=wrap;html=1;" vertex="1" parent="1">
          <mxGeometry x="690" width="120" height="80" as="geometry" />
        </mxCell>
        <mxCell id="aHM7PjvkRRjM55gxEJ2z-3" value="" style="endArrow=classic;html=1;rounded=0;" edge="1" parent="1" source="aHM7PjvkRRjM55gxEJ2z-1">
          <mxGeometry width="50" height="50" relative="1" as="geometry">
            <mxPoint x="750" y="130" as="sourcePoint" />
            <mxPoint x="750" y="180" as="targetPoint" />
          </mxGeometry>
        </mxCell>
        <mxCell id="aHM7PjvkRRjM55gxEJ2z-4" value="" style="endArrow=classic;html=1;rounded=0;" edge="1" parent="1">
          <mxGeometry width="50" height="50" relative="1" as="geometry">
            <mxPoint x="2100" y="420" as="sourcePoint" />
            <mxPoint x="890" y="410" as="targetPoint" />
          </mxGeometry>
        </mxCell>
        <mxCell id="aHM7PjvkRRjM55gxEJ2z-5" value="" style="endArrow=classic;html=1;rounded=0;" edge="1" parent="1">
          <mxGeometry width="50" height="50" relative="1" as="geometry">
            <mxPoint x="2090" y="420" as="sourcePoint" />
            <mxPoint x="2250" y="420" as="targetPoint" />
          </mxGeometry>
        </mxCell>
        <mxCell id="aHM7PjvkRRjM55gxEJ2z-6" value="" style="endArrow=classic;html=1;rounded=0;" edge="1" parent="1">
          <mxGeometry width="50" height="50" relative="1" as="geometry">
            <mxPoint x="890" y="410" as="sourcePoint" />
            <mxPoint x="890" y="510" as="targetPoint" />
          </mxGeometry>
        </mxCell>
        <mxCell id="aHM7PjvkRRjM55gxEJ2z-7" value="factorial button is clicked" style="rhombus;whiteSpace=wrap;html=1;" vertex="1" parent="1">
          <mxGeometry x="850" y="510" width="80" height="80" as="geometry" />
        </mxCell>
        <mxCell id="aHM7PjvkRRjM55gxEJ2z-9" value="" style="endArrow=classic;html=1;rounded=0;" edge="1" parent="1" source="aHM7PjvkRRjM55gxEJ2z-7">
          <mxGeometry width="50" height="50" relative="1" as="geometry">
            <mxPoint x="930" y="600" as="sourcePoint" />
            <mxPoint x="1000.7106781186549" y="550" as="targetPoint" />
          </mxGeometry>
        </mxCell>
        <mxCell id="aHM7PjvkRRjM55gxEJ2z-10" value="true" style="rounded=0;whiteSpace=wrap;html=1;" vertex="1" parent="1">
          <mxGeometry x="1000" y="520" width="120" height="60" as="geometry" />
        </mxCell>
        <mxCell id="aHM7PjvkRRjM55gxEJ2z-11" value="" style="endArrow=classic;html=1;rounded=0;" edge="1" parent="1" source="aHM7PjvkRRjM55gxEJ2z-10">
          <mxGeometry width="50" height="50" relative="1" as="geometry">
            <mxPoint x="1060" y="630" as="sourcePoint" />
            <mxPoint x="1060" y="650.7106781186548" as="targetPoint" />
          </mxGeometry>
        </mxCell>
        <mxCell id="aHM7PjvkRRjM55gxEJ2z-12" value="Call isValid function with txtFactorialInput as the parameter. Store the result in boolIsValid." style="rounded=0;whiteSpace=wrap;html=1;" vertex="1" parent="1">
          <mxGeometry x="960" y="650" width="200" height="60" as="geometry" />
        </mxCell>
        <mxCell id="aHM7PjvkRRjM55gxEJ2z-13" value="" style="endArrow=classic;html=1;rounded=0;" edge="1" parent="1" source="aHM7PjvkRRjM55gxEJ2z-12">
          <mxGeometry width="50" height="50" relative="1" as="geometry">
            <mxPoint x="1060" y="760" as="sourcePoint" />
            <mxPoint x="1060" y="780.7106781186548" as="targetPoint" />
          </mxGeometry>
        </mxCell>
        <mxCell id="aHM7PjvkRRjM55gxEJ2z-15" value="if !boolIsValid&amp;nbsp;" style="rhombus;whiteSpace=wrap;html=1;" vertex="1" parent="1">
          <mxGeometry x="1020" y="780" width="80" height="80" as="geometry" />
        </mxCell>
        <mxCell id="aHM7PjvkRRjM55gxEJ2z-16" value="" style="endArrow=classic;html=1;rounded=0;" edge="1" parent="1" source="aHM7PjvkRRjM55gxEJ2z-15">
          <mxGeometry width="50" height="50" relative="1" as="geometry">
            <mxPoint x="1100" y="870" as="sourcePoint" />
            <mxPoint x="1170.7106781186549" y="820" as="targetPoint" />
          </mxGeometry>
        </mxCell>
        <mxCell id="aHM7PjvkRRjM55gxEJ2z-17" value="true" style="rounded=0;whiteSpace=wrap;html=1;" vertex="1" parent="1">
          <mxGeometry x="1170" y="790" width="120" height="60" as="geometry" />
        </mxCell>
        <mxCell id="aHM7PjvkRRjM55gxEJ2z-18" value="" style="endArrow=classic;html=1;rounded=0;" edge="1" parent="1" source="aHM7PjvkRRjM55gxEJ2z-17">
          <mxGeometry width="50" height="50" relative="1" as="geometry">
            <mxPoint x="1230" y="900" as="sourcePoint" />
            <mxPoint x="1230" y="920.7106781186548" as="targetPoint" />
          </mxGeometry>
        </mxCell>
        <mxCell id="aHM7PjvkRRjM55gxEJ2z-19" value="Display a error message" style="rounded=0;whiteSpace=wrap;html=1;shape=parallelogram;perimeter=parallelogramPerimeter;fixedSize=1;" vertex="1" parent="1">
          <mxGeometry x="1170" y="920" width="120" height="60" as="geometry" />
        </mxCell>
        <mxCell id="aHM7PjvkRRjM55gxEJ2z-20" value="" style="endArrow=classic;html=1;rounded=0;" edge="1" parent="1" source="aHM7PjvkRRjM55gxEJ2z-19">
          <mxGeometry width="50" height="50" relative="1" as="geometry">
            <mxPoint x="1230" y="1030" as="sourcePoint" />
            <mxPoint x="1230" y="1050.7106781186549" as="targetPoint" />
          </mxGeometry>
        </mxCell>
        <mxCell id="aHM7PjvkRRjM55gxEJ2z-76" style="edgeStyle=orthogonalEdgeStyle;rounded=0;orthogonalLoop=1;jettySize=auto;html=1;exitX=0.5;exitY=1;exitDx=0;exitDy=0;" edge="1" parent="1" source="aHM7PjvkRRjM55gxEJ2z-21">
          <mxGeometry relative="1" as="geometry">
            <mxPoint x="750" y="259.9999999999998" as="targetPoint" />
            <Array as="points">
              <mxPoint x="1230" y="1260" />
              <mxPoint x="750" y="1260" />
            </Array>
          </mxGeometry>
        </mxCell>
        <mxCell id="aHM7PjvkRRjM55gxEJ2z-21" value="return" style="rounded=0;whiteSpace=wrap;html=1;" vertex="1" parent="1">
          <mxGeometry x="1170" y="1050" width="120" height="60" as="geometry" />
        </mxCell>
        <mxCell id="aHM7PjvkRRjM55gxEJ2z-23" value="" style="endArrow=classic;html=1;rounded=0;" edge="1" parent="1" source="aHM7PjvkRRjM55gxEJ2z-15">
          <mxGeometry width="50" height="50" relative="1" as="geometry">
            <mxPoint x="949.2893218813451" y="870" as="sourcePoint" />
            <mxPoint x="949.2893218813451" y="820" as="targetPoint" />
          </mxGeometry>
        </mxCell>
        <mxCell id="aHM7PjvkRRjM55gxEJ2z-24" value="false" style="rounded=0;whiteSpace=wrap;html=1;" vertex="1" parent="1">
          <mxGeometry x="830" y="790" width="120" height="60" as="geometry" />
        </mxCell>
        <mxCell id="aHM7PjvkRRjM55gxEJ2z-25" value="" style="endArrow=classic;html=1;rounded=0;" edge="1" parent="1" source="aHM7PjvkRRjM55gxEJ2z-24">
          <mxGeometry width="50" height="50" relative="1" as="geometry">
            <mxPoint x="890" y="900" as="sourcePoint" />
            <mxPoint x="890" y="920.7106781186548" as="targetPoint" />
          </mxGeometry>
        </mxCell>
        <mxCell id="aHM7PjvkRRjM55gxEJ2z-27" value="Call isFactorial with txtFactorialInput as the parameter" style="rounded=0;whiteSpace=wrap;html=1;" vertex="1" parent="1">
          <mxGeometry x="830" y="920" width="120" height="60" as="geometry" />
        </mxCell>
        <mxCell id="aHM7PjvkRRjM55gxEJ2z-28" value="" style="endArrow=classic;html=1;rounded=0;" edge="1" parent="1" source="aHM7PjvkRRjM55gxEJ2z-27">
          <mxGeometry width="50" height="50" relative="1" as="geometry">
            <mxPoint x="890" y="1030" as="sourcePoint" />
            <mxPoint x="890" y="1050.7106781186549" as="targetPoint" />
          </mxGeometry>
        </mxCell>
        <mxCell id="aHM7PjvkRRjM55gxEJ2z-29" value="Display the answer and a short message." style="shape=parallelogram;perimeter=parallelogramPerimeter;whiteSpace=wrap;html=1;fixedSize=1;" vertex="1" parent="1">
          <mxGeometry x="830" y="1050" width="120" height="60" as="geometry" />
        </mxCell>
        <mxCell id="aHM7PjvkRRjM55gxEJ2z-31" value="" style="endArrow=classic;html=1;rounded=0;" edge="1" parent="1" source="aHM7PjvkRRjM55gxEJ2z-29">
          <mxGeometry width="50" height="50" relative="1" as="geometry">
            <mxPoint x="890" y="1160" as="sourcePoint" />
            <mxPoint x="890" y="1180.7106781186549" as="targetPoint" />
          </mxGeometry>
        </mxCell>
        <mxCell id="aHM7PjvkRRjM55gxEJ2z-75" style="edgeStyle=orthogonalEdgeStyle;rounded=0;orthogonalLoop=1;jettySize=auto;html=1;exitX=0.5;exitY=1;exitDx=0;exitDy=0;entryX=0.5;entryY=1;entryDx=0;entryDy=0;" edge="1" parent="1" source="aHM7PjvkRRjM55gxEJ2z-32" target="aHM7PjvkRRjM55gxEJ2z-67">
          <mxGeometry relative="1" as="geometry" />
        </mxCell>
        <mxCell id="aHM7PjvkRRjM55gxEJ2z-32" value="return" style="rounded=0;whiteSpace=wrap;html=1;" vertex="1" parent="1">
          <mxGeometry x="830" y="1180" width="120" height="60" as="geometry" />
        </mxCell>
        <mxCell id="aHM7PjvkRRjM55gxEJ2z-33" value="" style="endArrow=classic;html=1;rounded=0;" edge="1" parent="1">
          <mxGeometry width="50" height="50" relative="1" as="geometry">
            <mxPoint x="1490" y="420" as="sourcePoint" />
            <mxPoint x="1490" y="480" as="targetPoint" />
          </mxGeometry>
        </mxCell>
        <mxCell id="aHM7PjvkRRjM55gxEJ2z-34" value="prime button is clicked" style="rhombus;whiteSpace=wrap;html=1;" vertex="1" parent="1">
          <mxGeometry x="1450" y="480" width="80" height="80" as="geometry" />
        </mxCell>
        <mxCell id="aHM7PjvkRRjM55gxEJ2z-35" value="" style="endArrow=classic;html=1;rounded=0;" edge="1" parent="1" source="aHM7PjvkRRjM55gxEJ2z-34">
          <mxGeometry width="50" height="50" relative="1" as="geometry">
            <mxPoint x="1530" y="570" as="sourcePoint" />
            <mxPoint x="1600.7106781186549" y="520" as="targetPoint" />
          </mxGeometry>
        </mxCell>
        <mxCell id="aHM7PjvkRRjM55gxEJ2z-36" value="true" style="rounded=0;whiteSpace=wrap;html=1;" vertex="1" parent="1">
          <mxGeometry x="1600" y="490" width="120" height="60" as="geometry" />
        </mxCell>
        <mxCell id="aHM7PjvkRRjM55gxEJ2z-37" value="" style="endArrow=classic;html=1;rounded=0;" edge="1" parent="1" source="aHM7PjvkRRjM55gxEJ2z-36">
          <mxGeometry width="50" height="50" relative="1" as="geometry">
            <mxPoint x="1660" y="600" as="sourcePoint" />
            <mxPoint x="1660" y="620.7106781186548" as="targetPoint" />
          </mxGeometry>
        </mxCell>
        <mxCell id="aHM7PjvkRRjM55gxEJ2z-38" value="try parsing primeInput for a integer" style="rounded=0;whiteSpace=wrap;html=1;" vertex="1" parent="1">
          <mxGeometry x="1600" y="620" width="120" height="60" as="geometry" />
        </mxCell>
        <mxCell id="aHM7PjvkRRjM55gxEJ2z-40" value="" style="endArrow=classic;html=1;rounded=0;" edge="1" parent="1" source="aHM7PjvkRRjM55gxEJ2z-38">
          <mxGeometry width="50" height="50" relative="1" as="geometry">
            <mxPoint x="1660" y="730" as="sourcePoint" />
            <mxPoint x="1660" y="750.7106781186548" as="targetPoint" />
          </mxGeometry>
        </mxCell>
        <mxCell id="aHM7PjvkRRjM55gxEJ2z-41" value="if primeInput can be parse for a int" style="rhombus;whiteSpace=wrap;html=1;" vertex="1" parent="1">
          <mxGeometry x="1620" y="750" width="80" height="80" as="geometry" />
        </mxCell>
        <mxCell id="aHM7PjvkRRjM55gxEJ2z-44" value="true" style="rounded=0;whiteSpace=wrap;html=1;" vertex="1" parent="1">
          <mxGeometry x="1770" y="760" width="120" height="60" as="geometry" />
        </mxCell>
        <mxCell id="aHM7PjvkRRjM55gxEJ2z-45" value="" style="endArrow=classic;html=1;rounded=0;" edge="1" parent="1" source="aHM7PjvkRRjM55gxEJ2z-41">
          <mxGeometry width="50" height="50" relative="1" as="geometry">
            <mxPoint x="1700" y="840" as="sourcePoint" />
            <mxPoint x="1770.7106781186549" y="790" as="targetPoint" />
          </mxGeometry>
        </mxCell>
        <mxCell id="aHM7PjvkRRjM55gxEJ2z-47" value="" style="endArrow=classic;html=1;rounded=0;" edge="1" parent="1" source="aHM7PjvkRRjM55gxEJ2z-44">
          <mxGeometry width="50" height="50" relative="1" as="geometry">
            <mxPoint x="1830" y="870" as="sourcePoint" />
            <mxPoint x="1830" y="890.7106781186548" as="targetPoint" />
          </mxGeometry>
        </mxCell>
        <mxCell id="aHM7PjvkRRjM55gxEJ2z-48" value="" style="endArrow=classic;html=1;rounded=0;" edge="1" parent="1" source="aHM7PjvkRRjM55gxEJ2z-41">
          <mxGeometry width="50" height="50" relative="1" as="geometry">
            <mxPoint x="1549.2893218813451" y="840" as="sourcePoint" />
            <mxPoint x="1549.2893218813451" y="790" as="targetPoint" />
          </mxGeometry>
        </mxCell>
        <mxCell id="aHM7PjvkRRjM55gxEJ2z-49" value="false" style="rounded=0;whiteSpace=wrap;html=1;" vertex="1" parent="1">
          <mxGeometry x="1430" y="760" width="120" height="60" as="geometry" />
        </mxCell>
        <mxCell id="aHM7PjvkRRjM55gxEJ2z-50" value="" style="endArrow=classic;html=1;rounded=0;" edge="1" parent="1" source="aHM7PjvkRRjM55gxEJ2z-49">
          <mxGeometry width="50" height="50" relative="1" as="geometry">
            <mxPoint x="1490" y="870" as="sourcePoint" />
            <mxPoint x="1490" y="890.7106781186548" as="targetPoint" />
          </mxGeometry>
        </mxCell>
        <mxCell id="aHM7PjvkRRjM55gxEJ2z-83" style="edgeStyle=orthogonalEdgeStyle;rounded=0;orthogonalLoop=1;jettySize=auto;html=1;exitX=0.5;exitY=1;exitDx=0;exitDy=0;entryX=0.5;entryY=1;entryDx=0;entryDy=0;" edge="1" parent="1" source="aHM7PjvkRRjM55gxEJ2z-51" target="aHM7PjvkRRjM55gxEJ2z-67">
          <mxGeometry relative="1" as="geometry">
            <Array as="points">
              <mxPoint x="1490" y="1260" />
              <mxPoint x="750" y="1260" />
            </Array>
          </mxGeometry>
        </mxCell>
        <mxCell id="aHM7PjvkRRjM55gxEJ2z-51" value="display a error message in the error box" style="shape=parallelogram;perimeter=parallelogramPerimeter;whiteSpace=wrap;html=1;fixedSize=1;" vertex="1" parent="1">
          <mxGeometry x="1430" y="890" width="120" height="60" as="geometry" />
        </mxCell>
        <mxCell id="aHM7PjvkRRjM55gxEJ2z-52" value="if isPrime with a&amp;nbsp; input of primeInput is true" style="rounded=0;whiteSpace=wrap;html=1;shape=rhombus;perimeter=rhombusPerimeter;" vertex="1" parent="1">
          <mxGeometry x="1770" y="890" width="120" height="60" as="geometry" />
        </mxCell>
        <mxCell id="aHM7PjvkRRjM55gxEJ2z-53" value="" style="endArrow=classic;html=1;rounded=0;" edge="1" parent="1" source="aHM7PjvkRRjM55gxEJ2z-52">
          <mxGeometry width="50" height="50" relative="1" as="geometry">
            <mxPoint x="1890" y="970" as="sourcePoint" />
            <mxPoint x="1960.7106781186549" y="920" as="targetPoint" />
          </mxGeometry>
        </mxCell>
        <mxCell id="aHM7PjvkRRjM55gxEJ2z-54" value="true" style="rounded=0;whiteSpace=wrap;html=1;" vertex="1" parent="1">
          <mxGeometry x="1960" y="890" width="120" height="60" as="geometry" />
        </mxCell>
        <mxCell id="aHM7PjvkRRjM55gxEJ2z-55" value="" style="endArrow=classic;html=1;rounded=0;" edge="1" parent="1" source="aHM7PjvkRRjM55gxEJ2z-54">
          <mxGeometry width="50" height="50" relative="1" as="geometry">
            <mxPoint x="2020" y="1000" as="sourcePoint" />
            <mxPoint x="2020" y="1020.7106781186548" as="targetPoint" />
          </mxGeometry>
        </mxCell>
        <mxCell id="aHM7PjvkRRjM55gxEJ2z-85" style="edgeStyle=orthogonalEdgeStyle;rounded=0;orthogonalLoop=1;jettySize=auto;html=1;exitX=0.5;exitY=1;exitDx=0;exitDy=0;entryX=0.5;entryY=1;entryDx=0;entryDy=0;" edge="1" parent="1" source="aHM7PjvkRRjM55gxEJ2z-56" target="aHM7PjvkRRjM55gxEJ2z-67">
          <mxGeometry relative="1" as="geometry">
            <Array as="points">
              <mxPoint x="2020" y="1260" />
              <mxPoint x="750" y="1260" />
            </Array>
          </mxGeometry>
        </mxCell>
        <mxCell id="aHM7PjvkRRjM55gxEJ2z-56" value="output the answer to the user, that it is prime" style="shape=parallelogram;perimeter=parallelogramPerimeter;whiteSpace=wrap;html=1;fixedSize=1;" vertex="1" parent="1">
          <mxGeometry x="1960" y="1020" width="120" height="60" as="geometry" />
        </mxCell>
        <mxCell id="aHM7PjvkRRjM55gxEJ2z-59" value="" style="endArrow=classic;html=1;rounded=0;" edge="1" parent="1" source="aHM7PjvkRRjM55gxEJ2z-52">
          <mxGeometry width="50" height="50" relative="1" as="geometry">
            <mxPoint x="1699.2893218813451" y="970" as="sourcePoint" />
            <mxPoint x="1699.2893218813451" y="920" as="targetPoint" />
          </mxGeometry>
        </mxCell>
        <mxCell id="aHM7PjvkRRjM55gxEJ2z-60" value="false" style="rounded=0;whiteSpace=wrap;html=1;" vertex="1" parent="1">
          <mxGeometry x="1580" y="890" width="120" height="60" as="geometry" />
        </mxCell>
        <mxCell id="aHM7PjvkRRjM55gxEJ2z-62" value="" style="endArrow=classic;html=1;rounded=0;" edge="1" parent="1" source="aHM7PjvkRRjM55gxEJ2z-60">
          <mxGeometry width="50" height="50" relative="1" as="geometry">
            <mxPoint x="1640" y="1000" as="sourcePoint" />
            <mxPoint x="1640" y="1020.7106781186548" as="targetPoint" />
          </mxGeometry>
        </mxCell>
        <mxCell id="aHM7PjvkRRjM55gxEJ2z-84" style="edgeStyle=orthogonalEdgeStyle;rounded=0;orthogonalLoop=1;jettySize=auto;html=1;exitX=0.5;exitY=1;exitDx=0;exitDy=0;entryX=0.5;entryY=1;entryDx=0;entryDy=0;" edge="1" parent="1" source="aHM7PjvkRRjM55gxEJ2z-63" target="aHM7PjvkRRjM55gxEJ2z-67">
          <mxGeometry relative="1" as="geometry">
            <Array as="points">
              <mxPoint x="1640" y="1260" />
              <mxPoint x="750" y="1260" />
            </Array>
          </mxGeometry>
        </mxCell>
        <mxCell id="aHM7PjvkRRjM55gxEJ2z-63" value="output the answer to the user" style="shape=parallelogram;perimeter=parallelogramPerimeter;whiteSpace=wrap;html=1;fixedSize=1;" vertex="1" parent="1">
          <mxGeometry x="1580" y="1020" width="120" height="60" as="geometry" />
        </mxCell>
        <mxCell id="aHM7PjvkRRjM55gxEJ2z-67" value="program is open" style="rhombus;whiteSpace=wrap;html=1;" vertex="1" parent="1">
          <mxGeometry x="710" y="180" width="80" height="80" as="geometry" />
        </mxCell>
        <mxCell id="aHM7PjvkRRjM55gxEJ2z-68" value="" style="endArrow=classic;html=1;rounded=0;" edge="1" parent="1" source="aHM7PjvkRRjM55gxEJ2z-67">
          <mxGeometry width="50" height="50" relative="1" as="geometry">
            <mxPoint x="790" y="270" as="sourcePoint" />
            <mxPoint x="860.7106781186549" y="220" as="targetPoint" />
          </mxGeometry>
        </mxCell>
        <mxCell id="aHM7PjvkRRjM55gxEJ2z-69" value="true" style="rounded=0;whiteSpace=wrap;html=1;" vertex="1" parent="1">
          <mxGeometry x="860" y="190" width="120" height="60" as="geometry" />
        </mxCell>
        <mxCell id="aHM7PjvkRRjM55gxEJ2z-70" value="" style="endArrow=classic;html=1;rounded=0;" edge="1" parent="1" source="aHM7PjvkRRjM55gxEJ2z-69">
          <mxGeometry width="50" height="50" relative="1" as="geometry">
            <mxPoint x="920" y="300" as="sourcePoint" />
            <mxPoint x="920" y="410" as="targetPoint" />
          </mxGeometry>
        </mxCell>
        <mxCell id="aHM7PjvkRRjM55gxEJ2z-71" value="" style="endArrow=classic;html=1;rounded=0;" edge="1" parent="1" source="aHM7PjvkRRjM55gxEJ2z-67">
          <mxGeometry width="50" height="50" relative="1" as="geometry">
            <mxPoint x="639.2893218813451" y="270" as="sourcePoint" />
            <mxPoint x="639.2893218813451" y="220" as="targetPoint" />
          </mxGeometry>
        </mxCell>
        <mxCell id="aHM7PjvkRRjM55gxEJ2z-72" value="false" style="rounded=0;whiteSpace=wrap;html=1;" vertex="1" parent="1">
          <mxGeometry x="520" y="190" width="120" height="60" as="geometry" />
        </mxCell>
        <mxCell id="aHM7PjvkRRjM55gxEJ2z-73" value="" style="endArrow=classic;html=1;rounded=0;" edge="1" parent="1" source="aHM7PjvkRRjM55gxEJ2z-72">
          <mxGeometry width="50" height="50" relative="1" as="geometry">
            <mxPoint x="580" y="300" as="sourcePoint" />
            <mxPoint x="580" y="320.71067811865476" as="targetPoint" />
          </mxGeometry>
        </mxCell>
        <mxCell id="aHM7PjvkRRjM55gxEJ2z-74" value="End" style="ellipse;whiteSpace=wrap;html=1;" vertex="1" parent="1">
          <mxGeometry x="520" y="320" width="120" height="80" as="geometry" />
        </mxCell>
        <mxCell id="aHM7PjvkRRjM55gxEJ2z-77" value="" style="endArrow=classic;html=1;rounded=0;" edge="1" parent="1" source="aHM7PjvkRRjM55gxEJ2z-7">
          <mxGeometry width="50" height="50" relative="1" as="geometry">
            <mxPoint x="779.2893218813451" y="600" as="sourcePoint" />
            <mxPoint x="830" y="550" as="targetPoint" />
          </mxGeometry>
        </mxCell>
        <mxCell id="aHM7PjvkRRjM55gxEJ2z-78" value="false" style="rounded=0;whiteSpace=wrap;html=1;" vertex="1" parent="1">
          <mxGeometry x="760" y="520" width="70" height="60" as="geometry" />
        </mxCell>
        <mxCell id="aHM7PjvkRRjM55gxEJ2z-80" value="" style="endArrow=classic;html=1;rounded=0;" edge="1" parent="1" source="aHM7PjvkRRjM55gxEJ2z-78">
          <mxGeometry width="50" height="50" relative="1" as="geometry">
            <mxPoint x="795" y="630" as="sourcePoint" />
            <mxPoint x="795" y="650.7106781186548" as="targetPoint" />
          </mxGeometry>
        </mxCell>
        <mxCell id="aHM7PjvkRRjM55gxEJ2z-82" style="edgeStyle=orthogonalEdgeStyle;rounded=0;orthogonalLoop=1;jettySize=auto;html=1;exitX=0.5;exitY=1;exitDx=0;exitDy=0;entryX=0.5;entryY=1;entryDx=0;entryDy=0;" edge="1" parent="1" source="aHM7PjvkRRjM55gxEJ2z-81" target="aHM7PjvkRRjM55gxEJ2z-67">
          <mxGeometry relative="1" as="geometry">
            <Array as="points">
              <mxPoint x="795" y="730" />
              <mxPoint x="750" y="730" />
            </Array>
          </mxGeometry>
        </mxCell>
        <mxCell id="aHM7PjvkRRjM55gxEJ2z-81" value="display a error message in the error box" style="rounded=0;whiteSpace=wrap;html=1;" vertex="1" parent="1">
          <mxGeometry x="755" y="650" width="80" height="60" as="geometry" />
        </mxCell>
        <mxCell id="aHM7PjvkRRjM55gxEJ2z-86" value="" style="endArrow=classic;html=1;rounded=0;" edge="1" parent="1">
          <mxGeometry width="50" height="50" relative="1" as="geometry">
            <mxPoint x="2240" y="420" as="sourcePoint" />
            <mxPoint x="2240" y="480" as="targetPoint" />
          </mxGeometry>
        </mxCell>
        <mxCell id="aHM7PjvkRRjM55gxEJ2z-87" value="factorial button is clicked" style="rhombus;whiteSpace=wrap;html=1;" vertex="1" parent="1">
          <mxGeometry x="2200" y="480" width="80" height="80" as="geometry" />
        </mxCell>
        <mxCell id="aHM7PjvkRRjM55gxEJ2z-88" value="" style="endArrow=classic;html=1;rounded=0;" edge="1" parent="1" source="aHM7PjvkRRjM55gxEJ2z-87">
          <mxGeometry width="50" height="50" relative="1" as="geometry">
            <mxPoint x="2280" y="570" as="sourcePoint" />
            <mxPoint x="2350.710678118655" y="520" as="targetPoint" />
          </mxGeometry>
        </mxCell>
        <mxCell id="aHM7PjvkRRjM55gxEJ2z-89" value="true" style="rounded=0;whiteSpace=wrap;html=1;" vertex="1" parent="1">
          <mxGeometry x="2350" y="490" width="120" height="60" as="geometry" />
        </mxCell>
        <mxCell id="aHM7PjvkRRjM55gxEJ2z-90" value="" style="endArrow=classic;html=1;rounded=0;" edge="1" parent="1" source="aHM7PjvkRRjM55gxEJ2z-89">
          <mxGeometry width="50" height="50" relative="1" as="geometry">
            <mxPoint x="2410" y="600" as="sourcePoint" />
            <mxPoint x="2410" y="620.7106781186548" as="targetPoint" />
          </mxGeometry>
        </mxCell>
        <mxCell id="aHM7PjvkRRjM55gxEJ2z-92" value="Call isValid function with txtFactorialInput as the parameter. Store the result in boolIsValid." style="rounded=0;whiteSpace=wrap;html=1;" vertex="1" parent="1">
          <mxGeometry x="2310" y="620" width="200" height="60" as="geometry" />
        </mxCell>
        <mxCell id="aHM7PjvkRRjM55gxEJ2z-93" value="" style="endArrow=classic;html=1;rounded=0;" edge="1" parent="1" source="aHM7PjvkRRjM55gxEJ2z-92">
          <mxGeometry width="50" height="50" relative="1" as="geometry">
            <mxPoint x="2410" y="730" as="sourcePoint" />
            <mxPoint x="2410" y="750.7106781186548" as="targetPoint" />
          </mxGeometry>
        </mxCell>
        <mxCell id="aHM7PjvkRRjM55gxEJ2z-94" value="if boolIsValid ||&amp;nbsp; txtFibInput == &quot;0&quot;" style="rhombus;whiteSpace=wrap;html=1;" vertex="1" parent="1">
          <mxGeometry x="2345" y="750" width="130" height="80" as="geometry" />
        </mxCell>
        <mxCell id="aHM7PjvkRRjM55gxEJ2z-95" value="" style="endArrow=classic;html=1;rounded=0;" edge="1" parent="1" source="aHM7PjvkRRjM55gxEJ2z-94">
          <mxGeometry width="50" height="50" relative="1" as="geometry">
            <mxPoint x="2475" y="840" as="sourcePoint" />
            <mxPoint x="2545.710678118655" y="790" as="targetPoint" />
          </mxGeometry>
        </mxCell>
        <mxCell id="aHM7PjvkRRjM55gxEJ2z-96" value="true" style="rounded=0;whiteSpace=wrap;html=1;" vertex="1" parent="1">
          <mxGeometry x="2540" y="760" width="120" height="60" as="geometry" />
        </mxCell>
        <mxCell id="aHM7PjvkRRjM55gxEJ2z-97" value="" style="endArrow=classic;html=1;rounded=0;" edge="1" parent="1" source="aHM7PjvkRRjM55gxEJ2z-96">
          <mxGeometry width="50" height="50" relative="1" as="geometry">
            <mxPoint x="2600" y="870" as="sourcePoint" />
            <mxPoint x="2600" y="890.7106781186548" as="targetPoint" />
          </mxGeometry>
        </mxCell>
        <mxCell id="aHM7PjvkRRjM55gxEJ2z-98" value="" style="endArrow=classic;html=1;rounded=0;" edge="1" parent="1" source="aHM7PjvkRRjM55gxEJ2z-94">
          <mxGeometry width="50" height="50" relative="1" as="geometry">
            <mxPoint x="2274.289321881345" y="840" as="sourcePoint" />
            <mxPoint x="2274.289321881345" y="790" as="targetPoint" />
          </mxGeometry>
        </mxCell>
        <mxCell id="aHM7PjvkRRjM55gxEJ2z-99" value="false" style="rounded=0;whiteSpace=wrap;html=1;" vertex="1" parent="1">
          <mxGeometry x="2160" y="760" width="120" height="60" as="geometry" />
        </mxCell>
        <mxCell id="aHM7PjvkRRjM55gxEJ2z-100" value="" style="endArrow=classic;html=1;rounded=0;" edge="1" parent="1" source="aHM7PjvkRRjM55gxEJ2z-99">
          <mxGeometry width="50" height="50" relative="1" as="geometry">
            <mxPoint x="2220" y="870" as="sourcePoint" />
            <mxPoint x="2220" y="890.7106781186548" as="targetPoint" />
          </mxGeometry>
        </mxCell>
        <mxCell id="aHM7PjvkRRjM55gxEJ2z-106" style="edgeStyle=orthogonalEdgeStyle;rounded=0;orthogonalLoop=1;jettySize=auto;html=1;exitX=0.5;exitY=1;exitDx=0;exitDy=0;entryX=0.5;entryY=1;entryDx=0;entryDy=0;" edge="1" parent="1" source="aHM7PjvkRRjM55gxEJ2z-101" target="aHM7PjvkRRjM55gxEJ2z-67">
          <mxGeometry relative="1" as="geometry">
            <Array as="points">
              <mxPoint x="2220" y="1260" />
              <mxPoint x="750" y="1260" />
            </Array>
          </mxGeometry>
        </mxCell>
        <mxCell id="aHM7PjvkRRjM55gxEJ2z-101" value="display a error message in the error box" style="shape=parallelogram;perimeter=parallelogramPerimeter;whiteSpace=wrap;html=1;fixedSize=1;" vertex="1" parent="1">
          <mxGeometry x="2160" y="890" width="120" height="60" as="geometry" />
        </mxCell>
        <mxCell id="aHM7PjvkRRjM55gxEJ2z-103" value="call the fibonacci method with txtFibInput as the parameter." style="rounded=0;whiteSpace=wrap;html=1;" vertex="1" parent="1">
          <mxGeometry x="2540" y="890" width="120" height="60" as="geometry" />
        </mxCell>
        <mxCell id="aHM7PjvkRRjM55gxEJ2z-107" style="edgeStyle=orthogonalEdgeStyle;rounded=0;orthogonalLoop=1;jettySize=auto;html=1;exitX=0.5;exitY=1;exitDx=0;exitDy=0;" edge="1" parent="1" source="aHM7PjvkRRjM55gxEJ2z-104">
          <mxGeometry relative="1" as="geometry">
            <mxPoint x="750" y="259.9999999999998" as="targetPoint" />
            <Array as="points">
              <mxPoint x="2600" y="1260" />
              <mxPoint x="750" y="1260" />
            </Array>
          </mxGeometry>
        </mxCell>
        <mxCell id="aHM7PjvkRRjM55gxEJ2z-104" value="Display the answer to the user." style="shape=parallelogram;perimeter=parallelogramPerimeter;whiteSpace=wrap;html=1;fixedSize=1;" vertex="1" parent="1">
          <mxGeometry x="2540" y="1020" width="120" height="60" as="geometry" />
        </mxCell>
        <mxCell id="aHM7PjvkRRjM55gxEJ2z-105" value="" style="endArrow=classic;html=1;rounded=0;" edge="1" parent="1" source="aHM7PjvkRRjM55gxEJ2z-103">
          <mxGeometry width="50" height="50" relative="1" as="geometry">
            <mxPoint x="2600" y="1000" as="sourcePoint" />
            <mxPoint x="2600" y="1020.7106781186548" as="targetPoint" />
          </mxGeometry>
        </mxCell>
      </root>
    </mxGraphModel>
  </diagram>
  <diagram id="xO0akqC7LEw-KZRyNj1-" name="factorial">
    <mxGraphModel grid="1" page="1" gridSize="10" guides="1" tooltips="1" connect="1" arrows="1" fold="1" pageScale="1" pageWidth="3500" pageHeight="3300" math="0" shadow="0">
      <root>
        <mxCell id="0" />
        <mxCell id="1" parent="0" />
        <mxCell id="_D_uxC-qLRNJBVokrDks-1" value="Start" style="ellipse;whiteSpace=wrap;html=1;" vertex="1" parent="1">
          <mxGeometry x="430" width="120" height="80" as="geometry" />
        </mxCell>
        <mxCell id="_D_uxC-qLRNJBVokrDks-2" value="" style="endArrow=classic;html=1;rounded=0;" edge="1" parent="1" source="_D_uxC-qLRNJBVokrDks-1">
          <mxGeometry width="50" height="50" relative="1" as="geometry">
            <mxPoint x="490" y="130" as="sourcePoint" />
            <mxPoint x="490" y="150.71067811865476" as="targetPoint" />
          </mxGeometry>
        </mxCell>
        <mxCell id="_D_uxC-qLRNJBVokrDks-3" value="int num (this is the parameter)" style="rounded=0;whiteSpace=wrap;html=1;" vertex="1" parent="1">
          <mxGeometry x="430" y="150" width="120" height="60" as="geometry" />
        </mxCell>
        <mxCell id="_D_uxC-qLRNJBVokrDks-4" value="" style="endArrow=classic;html=1;rounded=0;" edge="1" parent="1" source="_D_uxC-qLRNJBVokrDks-3">
          <mxGeometry width="50" height="50" relative="1" as="geometry">
            <mxPoint x="490" y="260" as="sourcePoint" />
            <mxPoint x="490" y="280.71067811865476" as="targetPoint" />
          </mxGeometry>
        </mxCell>
        <mxCell id="_D_uxC-qLRNJBVokrDks-6" value="i = 2" style="rounded=0;whiteSpace=wrap;html=1;" vertex="1" parent="1">
          <mxGeometry x="430" y="410" width="120" height="60" as="geometry" />
        </mxCell>
        <mxCell id="_D_uxC-qLRNJBVokrDks-7" value="" style="endArrow=classic;html=1;rounded=0;" edge="1" parent="1" source="_D_uxC-qLRNJBVokrDks-6">
          <mxGeometry width="50" height="50" relative="1" as="geometry">
            <mxPoint x="490" y="520" as="sourcePoint" />
            <mxPoint x="490" y="540.7106781186548" as="targetPoint" />
          </mxGeometry>
        </mxCell>
        <mxCell id="_D_uxC-qLRNJBVokrDks-8" value="i &amp;lt;= num" style="rhombus;whiteSpace=wrap;html=1;" vertex="1" parent="1">
          <mxGeometry x="450" y="540" width="80" height="80" as="geometry" />
        </mxCell>
        <mxCell id="_D_uxC-qLRNJBVokrDks-9" value="" style="endArrow=classic;html=1;rounded=0;" edge="1" parent="1" source="_D_uxC-qLRNJBVokrDks-8">
          <mxGeometry width="50" height="50" relative="1" as="geometry">
            <mxPoint x="530" y="630" as="sourcePoint" />
            <mxPoint x="600.7106781186548" y="580" as="targetPoint" />
          </mxGeometry>
        </mxCell>
        <mxCell id="_D_uxC-qLRNJBVokrDks-10" value="true" style="rounded=0;whiteSpace=wrap;html=1;" vertex="1" parent="1">
          <mxGeometry x="600" y="550" width="120" height="60" as="geometry" />
        </mxCell>
        <mxCell id="_D_uxC-qLRNJBVokrDks-11" value="" style="endArrow=classic;html=1;rounded=0;" edge="1" parent="1" source="_D_uxC-qLRNJBVokrDks-10">
          <mxGeometry width="50" height="50" relative="1" as="geometry">
            <mxPoint x="660" y="660" as="sourcePoint" />
            <mxPoint x="660" y="680.7106781186548" as="targetPoint" />
          </mxGeometry>
        </mxCell>
        <mxCell id="_D_uxC-qLRNJBVokrDks-12" value="tot *= i" style="rounded=0;whiteSpace=wrap;html=1;" vertex="1" parent="1">
          <mxGeometry x="600" y="680" width="120" height="60" as="geometry" />
        </mxCell>
        <mxCell id="_D_uxC-qLRNJBVokrDks-13" value="tot = 1" style="rounded=0;whiteSpace=wrap;html=1;" vertex="1" parent="1">
          <mxGeometry x="430" y="280" width="120" height="60" as="geometry" />
        </mxCell>
        <mxCell id="_D_uxC-qLRNJBVokrDks-14" value="" style="endArrow=classic;html=1;rounded=0;" edge="1" parent="1" source="_D_uxC-qLRNJBVokrDks-13">
          <mxGeometry width="50" height="50" relative="1" as="geometry">
            <mxPoint x="490" y="390" as="sourcePoint" />
            <mxPoint x="490" y="410.71067811865476" as="targetPoint" />
          </mxGeometry>
        </mxCell>
        <mxCell id="_D_uxC-qLRNJBVokrDks-15" value="" style="endArrow=classic;html=1;rounded=0;" edge="1" parent="1" source="_D_uxC-qLRNJBVokrDks-12">
          <mxGeometry width="50" height="50" relative="1" as="geometry">
            <mxPoint x="660" y="790" as="sourcePoint" />
            <mxPoint x="660" y="810.7106781186548" as="targetPoint" />
          </mxGeometry>
        </mxCell>
        <mxCell id="_D_uxC-qLRNJBVokrDks-17" style="edgeStyle=orthogonalEdgeStyle;rounded=0;orthogonalLoop=1;jettySize=auto;html=1;exitX=0.5;exitY=1;exitDx=0;exitDy=0;entryX=0.5;entryY=1;entryDx=0;entryDy=0;" edge="1" parent="1" source="_D_uxC-qLRNJBVokrDks-16" target="_D_uxC-qLRNJBVokrDks-8">
          <mxGeometry relative="1" as="geometry" />
        </mxCell>
        <mxCell id="_D_uxC-qLRNJBVokrDks-16" value="i++" style="rounded=0;whiteSpace=wrap;html=1;" vertex="1" parent="1">
          <mxGeometry x="600" y="810" width="120" height="60" as="geometry" />
        </mxCell>
        <mxCell id="_D_uxC-qLRNJBVokrDks-18" value="" style="endArrow=classic;html=1;rounded=0;" edge="1" parent="1" source="_D_uxC-qLRNJBVokrDks-8">
          <mxGeometry width="50" height="50" relative="1" as="geometry">
            <mxPoint x="379.28932188134524" y="630" as="sourcePoint" />
            <mxPoint x="379.28932188134524" y="580" as="targetPoint" />
          </mxGeometry>
        </mxCell>
        <mxCell id="_D_uxC-qLRNJBVokrDks-19" value="false" style="rounded=0;whiteSpace=wrap;html=1;" vertex="1" parent="1">
          <mxGeometry x="260" y="550" width="120" height="60" as="geometry" />
        </mxCell>
        <mxCell id="_D_uxC-qLRNJBVokrDks-20" value="" style="endArrow=classic;html=1;rounded=0;" edge="1" parent="1" source="_D_uxC-qLRNJBVokrDks-19">
          <mxGeometry width="50" height="50" relative="1" as="geometry">
            <mxPoint x="320" y="660" as="sourcePoint" />
            <mxPoint x="320" y="680.7106781186548" as="targetPoint" />
          </mxGeometry>
        </mxCell>
        <mxCell id="_D_uxC-qLRNJBVokrDks-21" value="return tot" style="rounded=0;whiteSpace=wrap;html=1;" vertex="1" parent="1">
          <mxGeometry x="260" y="680" width="120" height="60" as="geometry" />
        </mxCell>
        <mxCell id="_D_uxC-qLRNJBVokrDks-22" value="" style="endArrow=classic;html=1;rounded=0;" edge="1" parent="1" source="_D_uxC-qLRNJBVokrDks-21">
          <mxGeometry width="50" height="50" relative="1" as="geometry">
            <mxPoint x="320" y="790" as="sourcePoint" />
            <mxPoint x="320" y="810.7106781186548" as="targetPoint" />
          </mxGeometry>
        </mxCell>
        <mxCell id="_D_uxC-qLRNJBVokrDks-23" value="End" style="ellipse;whiteSpace=wrap;html=1;" vertex="1" parent="1">
          <mxGeometry x="260" y="810" width="120" height="80" as="geometry" />
        </mxCell>
      </root>
    </mxGraphModel>
  </diagram>
  <diagram id="vwzrEUVMVlLOr7Y2JZw5" name="Prime">
    <mxGraphModel grid="1" page="1" gridSize="10" guides="1" tooltips="1" connect="1" arrows="1" fold="1" pageScale="1" pageWidth="3500" pageHeight="3300" math="0" shadow="0">
      <root>
        <mxCell id="0" />
        <mxCell id="1" parent="0" />
        <mxCell id="nR4WeefANG8mHLfdvDZ5-1" value="Start" style="ellipse;whiteSpace=wrap;html=1;" vertex="1" parent="1">
          <mxGeometry x="350" width="120" height="80" as="geometry" />
        </mxCell>
        <mxCell id="nR4WeefANG8mHLfdvDZ5-2" value="" style="endArrow=classic;html=1;rounded=0;" edge="1" parent="1" source="nR4WeefANG8mHLfdvDZ5-1">
          <mxGeometry width="50" height="50" relative="1" as="geometry">
            <mxPoint x="410" y="140" as="sourcePoint" />
            <mxPoint x="410" y="150" as="targetPoint" />
          </mxGeometry>
        </mxCell>
        <mxCell id="nR4WeefANG8mHLfdvDZ5-3" value="int num (this is the parameter)" style="rounded=0;whiteSpace=wrap;html=1;" vertex="1" parent="1">
          <mxGeometry x="350" y="150" width="120" height="60" as="geometry" />
        </mxCell>
        <mxCell id="HUVNFmeZQrdHv0PyYgay-1" value="" style="endArrow=classic;html=1;rounded=0;" edge="1" parent="1" source="nR4WeefANG8mHLfdvDZ5-3">
          <mxGeometry width="50" height="50" relative="1" as="geometry">
            <mxPoint x="410" y="260" as="sourcePoint" />
            <mxPoint x="410" y="280.71067811865476" as="targetPoint" />
          </mxGeometry>
        </mxCell>
        <mxCell id="HUVNFmeZQrdHv0PyYgay-3" value="i=2" style="rounded=0;whiteSpace=wrap;html=1;" vertex="1" parent="1">
          <mxGeometry x="350" y="410" width="120" height="60" as="geometry" />
        </mxCell>
        <mxCell id="HUVNFmeZQrdHv0PyYgay-4" value="" style="endArrow=classic;html=1;rounded=0;" edge="1" parent="1" source="HUVNFmeZQrdHv0PyYgay-3">
          <mxGeometry width="50" height="50" relative="1" as="geometry">
            <mxPoint x="410" y="520" as="sourcePoint" />
            <mxPoint x="410" y="540.7106781186548" as="targetPoint" />
          </mxGeometry>
        </mxCell>
        <mxCell id="HUVNFmeZQrdHv0PyYgay-5" value="i &amp;lt; floor(sqrt(num)) + 1" style="rhombus;whiteSpace=wrap;html=1;" vertex="1" parent="1">
          <mxGeometry x="370" y="540" width="80" height="80" as="geometry" />
        </mxCell>
        <mxCell id="HUVNFmeZQrdHv0PyYgay-6" value="" style="endArrow=classic;html=1;rounded=0;exitX=1;exitY=0.5;exitDx=0;exitDy=0;" edge="1" parent="1" source="HUVNFmeZQrdHv0PyYgay-5">
          <mxGeometry width="50" height="50" relative="1" as="geometry">
            <mxPoint x="630" y="580" as="sourcePoint" />
            <mxPoint x="700.7106781186548" y="580" as="targetPoint" />
          </mxGeometry>
        </mxCell>
        <mxCell id="HUVNFmeZQrdHv0PyYgay-7" value="true" style="rounded=0;whiteSpace=wrap;html=1;" vertex="1" parent="1">
          <mxGeometry x="700" y="550" width="120" height="60" as="geometry" />
        </mxCell>
        <mxCell id="HUVNFmeZQrdHv0PyYgay-8" value="" style="endArrow=classic;html=1;rounded=0;" edge="1" parent="1" source="HUVNFmeZQrdHv0PyYgay-7">
          <mxGeometry width="50" height="50" relative="1" as="geometry">
            <mxPoint x="760" y="660" as="sourcePoint" />
            <mxPoint x="760" y="680.7106781186548" as="targetPoint" />
          </mxGeometry>
        </mxCell>
        <mxCell id="HUVNFmeZQrdHv0PyYgay-9" value="if num % 2 == 0" style="rounded=0;whiteSpace=wrap;html=1;shape=rhombus;perimeter=rhombusPerimeter;" vertex="1" parent="1">
          <mxGeometry x="700" y="680" width="120" height="60" as="geometry" />
        </mxCell>
        <mxCell id="HUVNFmeZQrdHv0PyYgay-10" value="isPrime = true" style="rounded=0;whiteSpace=wrap;html=1;" vertex="1" parent="1">
          <mxGeometry x="350" y="280" width="120" height="60" as="geometry" />
        </mxCell>
        <mxCell id="HUVNFmeZQrdHv0PyYgay-11" value="" style="endArrow=classic;html=1;rounded=0;" edge="1" parent="1" source="HUVNFmeZQrdHv0PyYgay-10">
          <mxGeometry width="50" height="50" relative="1" as="geometry">
            <mxPoint x="410" y="390" as="sourcePoint" />
            <mxPoint x="410" y="410.71067811865476" as="targetPoint" />
          </mxGeometry>
        </mxCell>
        <mxCell id="HUVNFmeZQrdHv0PyYgay-12" value="" style="endArrow=classic;html=1;rounded=0;" edge="1" parent="1" source="HUVNFmeZQrdHv0PyYgay-9">
          <mxGeometry width="50" height="50" relative="1" as="geometry">
            <mxPoint x="820" y="760" as="sourcePoint" />
            <mxPoint x="890.7106781186548" y="710" as="targetPoint" />
          </mxGeometry>
        </mxCell>
        <mxCell id="HUVNFmeZQrdHv0PyYgay-13" value="true" style="rounded=0;whiteSpace=wrap;html=1;" vertex="1" parent="1">
          <mxGeometry x="890" y="680" width="120" height="60" as="geometry" />
        </mxCell>
        <mxCell id="HUVNFmeZQrdHv0PyYgay-14" value="" style="endArrow=classic;html=1;rounded=0;" edge="1" parent="1" source="HUVNFmeZQrdHv0PyYgay-13">
          <mxGeometry width="50" height="50" relative="1" as="geometry">
            <mxPoint x="950" y="790" as="sourcePoint" />
            <mxPoint x="950" y="810.7106781186548" as="targetPoint" />
          </mxGeometry>
        </mxCell>
        <mxCell id="HUVNFmeZQrdHv0PyYgay-24" style="edgeStyle=orthogonalEdgeStyle;rounded=0;orthogonalLoop=1;jettySize=auto;html=1;exitX=0.5;exitY=1;exitDx=0;exitDy=0;entryX=0.5;entryY=1;entryDx=0;entryDy=0;" edge="1" parent="1" source="HUVNFmeZQrdHv0PyYgay-15" target="HUVNFmeZQrdHv0PyYgay-22">
          <mxGeometry relative="1" as="geometry" />
        </mxCell>
        <mxCell id="HUVNFmeZQrdHv0PyYgay-15" value="isPrime = false" style="rounded=0;whiteSpace=wrap;html=1;" vertex="1" parent="1">
          <mxGeometry x="890" y="810" width="120" height="60" as="geometry" />
        </mxCell>
        <mxCell id="HUVNFmeZQrdHv0PyYgay-16" value="" style="endArrow=classic;html=1;rounded=0;" edge="1" parent="1" source="HUVNFmeZQrdHv0PyYgay-9">
          <mxGeometry width="50" height="50" relative="1" as="geometry">
            <mxPoint x="629.2893218813452" y="760" as="sourcePoint" />
            <mxPoint x="629.2893218813452" y="710" as="targetPoint" />
          </mxGeometry>
        </mxCell>
        <mxCell id="HUVNFmeZQrdHv0PyYgay-23" style="edgeStyle=orthogonalEdgeStyle;rounded=0;orthogonalLoop=1;jettySize=auto;html=1;exitX=0.5;exitY=1;exitDx=0;exitDy=0;entryX=0.5;entryY=1;entryDx=0;entryDy=0;" edge="1" parent="1" source="HUVNFmeZQrdHv0PyYgay-17" target="HUVNFmeZQrdHv0PyYgay-22">
          <mxGeometry relative="1" as="geometry" />
        </mxCell>
        <mxCell id="HUVNFmeZQrdHv0PyYgay-17" value="false" style="rounded=0;whiteSpace=wrap;html=1;" vertex="1" parent="1">
          <mxGeometry x="510" y="680" width="120" height="60" as="geometry" />
        </mxCell>
        <mxCell id="HUVNFmeZQrdHv0PyYgay-20" value="" style="endArrow=classic;html=1;rounded=0;" edge="1" parent="1" source="HUVNFmeZQrdHv0PyYgay-5">
          <mxGeometry width="50" height="50" relative="1" as="geometry">
            <mxPoint x="299.28932188134524" y="630" as="sourcePoint" />
            <mxPoint x="299.28932188134524" y="580" as="targetPoint" />
          </mxGeometry>
        </mxCell>
        <mxCell id="HUVNFmeZQrdHv0PyYgay-21" value="false" style="rounded=0;whiteSpace=wrap;html=1;" vertex="1" parent="1">
          <mxGeometry x="180" y="550" width="120" height="60" as="geometry" />
        </mxCell>
        <mxCell id="HUVNFmeZQrdHv0PyYgay-25" style="edgeStyle=orthogonalEdgeStyle;rounded=0;orthogonalLoop=1;jettySize=auto;html=1;exitX=0.5;exitY=0;exitDx=0;exitDy=0;entryX=0.5;entryY=1;entryDx=0;entryDy=0;" edge="1" parent="1" source="HUVNFmeZQrdHv0PyYgay-22" target="HUVNFmeZQrdHv0PyYgay-5">
          <mxGeometry relative="1" as="geometry" />
        </mxCell>
        <mxCell id="HUVNFmeZQrdHv0PyYgay-22" value="i++" style="rounded=0;whiteSpace=wrap;html=1;" vertex="1" parent="1">
          <mxGeometry x="350" y="680" width="120" height="60" as="geometry" />
        </mxCell>
        <mxCell id="HUVNFmeZQrdHv0PyYgay-26" value="" style="endArrow=classic;html=1;rounded=0;" edge="1" parent="1" source="HUVNFmeZQrdHv0PyYgay-21">
          <mxGeometry width="50" height="50" relative="1" as="geometry">
            <mxPoint x="240" y="660" as="sourcePoint" />
            <mxPoint x="240" y="680.7106781186548" as="targetPoint" />
          </mxGeometry>
        </mxCell>
        <mxCell id="HUVNFmeZQrdHv0PyYgay-27" value="return isPrime" style="rounded=0;whiteSpace=wrap;html=1;" vertex="1" parent="1">
          <mxGeometry x="180" y="680" width="120" height="60" as="geometry" />
        </mxCell>
        <mxCell id="HUVNFmeZQrdHv0PyYgay-28" value="" style="endArrow=classic;html=1;rounded=0;" edge="1" parent="1" source="HUVNFmeZQrdHv0PyYgay-27">
          <mxGeometry width="50" height="50" relative="1" as="geometry">
            <mxPoint x="240" y="790" as="sourcePoint" />
            <mxPoint x="240" y="810.7106781186548" as="targetPoint" />
          </mxGeometry>
        </mxCell>
        <mxCell id="HUVNFmeZQrdHv0PyYgay-29" value="End" style="ellipse;whiteSpace=wrap;html=1;" vertex="1" parent="1">
          <mxGeometry x="180" y="810" width="120" height="80" as="geometry" />
        </mxCell>
      </root>
    </mxGraphModel>
  </diagram>
  <diagram id="4nP5QMkpGNl_A1Rs5gVn" name=" Fibonacci">
    <mxGraphModel grid="1" page="1" gridSize="10" guides="1" tooltips="1" connect="1" arrows="1" fold="1" pageScale="1" pageWidth="3500" pageHeight="3300" math="0" shadow="0">
      <root>
        <mxCell id="0" />
        <mxCell id="1" parent="0" />
        <mxCell id="bWcjx1eWvuRGW9UcU9SX-2" value="Start" style="ellipse;whiteSpace=wrap;html=1;" vertex="1" parent="1">
          <mxGeometry x="620" width="120" height="80" as="geometry" />
        </mxCell>
        <mxCell id="bWcjx1eWvuRGW9UcU9SX-3" value="" style="endArrow=classic;html=1;rounded=0;" edge="1" parent="1" source="bWcjx1eWvuRGW9UcU9SX-2">
          <mxGeometry width="50" height="50" relative="1" as="geometry">
            <mxPoint x="680" y="130" as="sourcePoint" />
            <mxPoint x="680" y="150.71067811865476" as="targetPoint" />
          </mxGeometry>
        </mxCell>
        <mxCell id="bWcjx1eWvuRGW9UcU9SX-4" value="int num (this is the parameter)" style="rounded=0;whiteSpace=wrap;html=1;" vertex="1" parent="1">
          <mxGeometry x="620" y="150" width="120" height="60" as="geometry" />
        </mxCell>
        <mxCell id="9brBhYnCeKOdp2ZSYi8U-1" value="" style="endArrow=classic;html=1;rounded=0;" edge="1" parent="1" source="bWcjx1eWvuRGW9UcU9SX-4">
          <mxGeometry width="50" height="50" relative="1" as="geometry">
            <mxPoint x="680" y="260" as="sourcePoint" />
            <mxPoint x="680" y="280.71067811865476" as="targetPoint" />
          </mxGeometry>
        </mxCell>
        <mxCell id="9brBhYnCeKOdp2ZSYi8U-2" value="int last = 0, cur&amp;nbsp; = 1" style="rounded=0;whiteSpace=wrap;html=1;" vertex="1" parent="1">
          <mxGeometry x="620" y="280" width="120" height="60" as="geometry" />
        </mxCell>
        <mxCell id="9brBhYnCeKOdp2ZSYi8U-3" value="" style="endArrow=classic;html=1;rounded=0;" edge="1" parent="1" source="9brBhYnCeKOdp2ZSYi8U-2">
          <mxGeometry width="50" height="50" relative="1" as="geometry">
            <mxPoint x="680" y="390" as="sourcePoint" />
            <mxPoint x="680" y="410.71067811865476" as="targetPoint" />
          </mxGeometry>
        </mxCell>
        <mxCell id="9brBhYnCeKOdp2ZSYi8U-4" value="num == 0" style="rhombus;whiteSpace=wrap;html=1;" vertex="1" parent="1">
          <mxGeometry x="640" y="410" width="80" height="80" as="geometry" />
        </mxCell>
        <mxCell id="9brBhYnCeKOdp2ZSYi8U-5" value="" style="endArrow=classic;html=1;rounded=0;" edge="1" parent="1" source="9brBhYnCeKOdp2ZSYi8U-4">
          <mxGeometry width="50" height="50" relative="1" as="geometry">
            <mxPoint x="720" y="500" as="sourcePoint" />
            <mxPoint x="790.7106781186548" y="450" as="targetPoint" />
          </mxGeometry>
        </mxCell>
        <mxCell id="9brBhYnCeKOdp2ZSYi8U-6" value="true" style="rounded=0;whiteSpace=wrap;html=1;" vertex="1" parent="1">
          <mxGeometry x="790" y="420" width="120" height="60" as="geometry" />
        </mxCell>
        <mxCell id="9brBhYnCeKOdp2ZSYi8U-7" value="" style="endArrow=classic;html=1;rounded=0;" edge="1" parent="1" source="9brBhYnCeKOdp2ZSYi8U-6">
          <mxGeometry width="50" height="50" relative="1" as="geometry">
            <mxPoint x="850" y="530" as="sourcePoint" />
            <mxPoint x="850" y="550.7106781186548" as="targetPoint" />
          </mxGeometry>
        </mxCell>
        <mxCell id="_bG7CvbPy4RuLaw3PVnU-19" style="edgeStyle=orthogonalEdgeStyle;rounded=0;orthogonalLoop=1;jettySize=auto;html=1;exitX=0.5;exitY=1;exitDx=0;exitDy=0;entryX=0.5;entryY=0;entryDx=0;entryDy=0;" edge="1" parent="1" source="9brBhYnCeKOdp2ZSYi8U-8" target="_bG7CvbPy4RuLaw3PVnU-15">
          <mxGeometry relative="1" as="geometry">
            <Array as="points">
              <mxPoint x="850" y="1360" />
              <mxPoint x="170" y="1360" />
            </Array>
          </mxGeometry>
        </mxCell>
        <mxCell id="9brBhYnCeKOdp2ZSYi8U-8" value="return 0" style="rounded=0;whiteSpace=wrap;html=1;" vertex="1" parent="1">
          <mxGeometry x="790" y="550" width="120" height="60" as="geometry" />
        </mxCell>
        <mxCell id="9brBhYnCeKOdp2ZSYi8U-10" value="" style="endArrow=classic;html=1;rounded=0;" edge="1" parent="1" source="9brBhYnCeKOdp2ZSYi8U-4">
          <mxGeometry width="50" height="50" relative="1" as="geometry">
            <mxPoint x="569.2893218813452" y="500" as="sourcePoint" />
            <mxPoint x="569.2893218813452" y="450" as="targetPoint" />
          </mxGeometry>
        </mxCell>
        <mxCell id="9brBhYnCeKOdp2ZSYi8U-11" value="false" style="rounded=0;whiteSpace=wrap;html=1;" vertex="1" parent="1">
          <mxGeometry x="450" y="420" width="120" height="60" as="geometry" />
        </mxCell>
        <mxCell id="9brBhYnCeKOdp2ZSYi8U-12" value="" style="endArrow=classic;html=1;rounded=0;" edge="1" parent="1" source="9brBhYnCeKOdp2ZSYi8U-11">
          <mxGeometry width="50" height="50" relative="1" as="geometry">
            <mxPoint x="510" y="530" as="sourcePoint" />
            <mxPoint x="510" y="550.7106781186548" as="targetPoint" />
          </mxGeometry>
        </mxCell>
        <mxCell id="9brBhYnCeKOdp2ZSYi8U-13" value="num == 1" style="rhombus;whiteSpace=wrap;html=1;" vertex="1" parent="1">
          <mxGeometry x="470" y="550" width="80" height="80" as="geometry" />
        </mxCell>
        <mxCell id="9brBhYnCeKOdp2ZSYi8U-14" value="" style="endArrow=classic;html=1;rounded=0;" edge="1" parent="1" source="9brBhYnCeKOdp2ZSYi8U-13">
          <mxGeometry width="50" height="50" relative="1" as="geometry">
            <mxPoint x="550" y="640" as="sourcePoint" />
            <mxPoint x="620.7106781186548" y="590" as="targetPoint" />
          </mxGeometry>
        </mxCell>
        <mxCell id="9brBhYnCeKOdp2ZSYi8U-15" value="true" style="rounded=0;whiteSpace=wrap;html=1;" vertex="1" parent="1">
          <mxGeometry x="620" y="560" width="120" height="60" as="geometry" />
        </mxCell>
        <mxCell id="9brBhYnCeKOdp2ZSYi8U-16" value="" style="endArrow=classic;html=1;rounded=0;" edge="1" parent="1" source="9brBhYnCeKOdp2ZSYi8U-15">
          <mxGeometry width="50" height="50" relative="1" as="geometry">
            <mxPoint x="680" y="670" as="sourcePoint" />
            <mxPoint x="680" y="690.7106781186548" as="targetPoint" />
          </mxGeometry>
        </mxCell>
        <mxCell id="_bG7CvbPy4RuLaw3PVnU-18" style="edgeStyle=orthogonalEdgeStyle;rounded=0;orthogonalLoop=1;jettySize=auto;html=1;exitX=0.5;exitY=1;exitDx=0;exitDy=0;entryX=0.5;entryY=0;entryDx=0;entryDy=0;" edge="1" parent="1" source="9brBhYnCeKOdp2ZSYi8U-17" target="_bG7CvbPy4RuLaw3PVnU-15">
          <mxGeometry relative="1" as="geometry">
            <Array as="points">
              <mxPoint x="680" y="1360" />
              <mxPoint x="170" y="1360" />
            </Array>
          </mxGeometry>
        </mxCell>
        <mxCell id="9brBhYnCeKOdp2ZSYi8U-17" value="return 1" style="rounded=0;whiteSpace=wrap;html=1;" vertex="1" parent="1">
          <mxGeometry x="620" y="690" width="120" height="60" as="geometry" />
        </mxCell>
        <mxCell id="9brBhYnCeKOdp2ZSYi8U-18" value="" style="endArrow=classic;html=1;rounded=0;" edge="1" parent="1" source="9brBhYnCeKOdp2ZSYi8U-13">
          <mxGeometry width="50" height="50" relative="1" as="geometry">
            <mxPoint x="399.28932188134524" y="640" as="sourcePoint" />
            <mxPoint x="399.28932188134524" y="590" as="targetPoint" />
          </mxGeometry>
        </mxCell>
        <mxCell id="9brBhYnCeKOdp2ZSYi8U-19" value="false" style="rounded=0;whiteSpace=wrap;html=1;" vertex="1" parent="1">
          <mxGeometry x="280" y="560" width="120" height="60" as="geometry" />
        </mxCell>
        <mxCell id="9brBhYnCeKOdp2ZSYi8U-20" value="" style="endArrow=classic;html=1;rounded=0;" edge="1" parent="1" source="9brBhYnCeKOdp2ZSYi8U-19">
          <mxGeometry width="50" height="50" relative="1" as="geometry">
            <mxPoint x="340" y="670" as="sourcePoint" />
            <mxPoint x="340" y="690.7106781186548" as="targetPoint" />
          </mxGeometry>
        </mxCell>
        <mxCell id="9brBhYnCeKOdp2ZSYi8U-21" value="i = 2" style="rounded=0;whiteSpace=wrap;html=1;" vertex="1" parent="1">
          <mxGeometry x="280" y="690" width="120" height="60" as="geometry" />
        </mxCell>
        <mxCell id="_bG7CvbPy4RuLaw3PVnU-1" value="" style="endArrow=classic;html=1;rounded=0;" edge="1" parent="1" source="9brBhYnCeKOdp2ZSYi8U-21">
          <mxGeometry width="50" height="50" relative="1" as="geometry">
            <mxPoint x="340" y="800" as="sourcePoint" />
            <mxPoint x="340" y="820.7106781186548" as="targetPoint" />
          </mxGeometry>
        </mxCell>
        <mxCell id="_bG7CvbPy4RuLaw3PVnU-2" value="i &amp;lt; num" style="rhombus;whiteSpace=wrap;html=1;" vertex="1" parent="1">
          <mxGeometry x="300" y="820" width="80" height="80" as="geometry" />
        </mxCell>
        <mxCell id="_bG7CvbPy4RuLaw3PVnU-3" value="" style="endArrow=classic;html=1;rounded=0;" edge="1" parent="1" source="_bG7CvbPy4RuLaw3PVnU-2">
          <mxGeometry width="50" height="50" relative="1" as="geometry">
            <mxPoint x="380" y="910" as="sourcePoint" />
            <mxPoint x="450.71067811865476" y="860" as="targetPoint" />
          </mxGeometry>
        </mxCell>
        <mxCell id="_bG7CvbPy4RuLaw3PVnU-4" value="true" style="rounded=0;whiteSpace=wrap;html=1;" vertex="1" parent="1">
          <mxGeometry x="450" y="830" width="120" height="60" as="geometry" />
        </mxCell>
        <mxCell id="_bG7CvbPy4RuLaw3PVnU-5" value="" style="endArrow=classic;html=1;rounded=0;" edge="1" parent="1" source="_bG7CvbPy4RuLaw3PVnU-4">
          <mxGeometry width="50" height="50" relative="1" as="geometry">
            <mxPoint x="510" y="940" as="sourcePoint" />
            <mxPoint x="510" y="960.7106781186548" as="targetPoint" />
          </mxGeometry>
        </mxCell>
        <mxCell id="_bG7CvbPy4RuLaw3PVnU-6" value="temp = cur" style="rounded=0;whiteSpace=wrap;html=1;" vertex="1" parent="1">
          <mxGeometry x="450" y="960" width="120" height="60" as="geometry" />
        </mxCell>
        <mxCell id="_bG7CvbPy4RuLaw3PVnU-7" value="" style="endArrow=classic;html=1;rounded=0;" edge="1" parent="1" source="_bG7CvbPy4RuLaw3PVnU-6">
          <mxGeometry width="50" height="50" relative="1" as="geometry">
            <mxPoint x="510" y="1070" as="sourcePoint" />
            <mxPoint x="510" y="1090.7106781186549" as="targetPoint" />
          </mxGeometry>
        </mxCell>
        <mxCell id="_bG7CvbPy4RuLaw3PVnU-8" value="cur += last" style="rounded=0;whiteSpace=wrap;html=1;" vertex="1" parent="1">
          <mxGeometry x="450" y="1090" width="120" height="60" as="geometry" />
        </mxCell>
        <mxCell id="_bG7CvbPy4RuLaw3PVnU-9" value="" style="endArrow=classic;html=1;rounded=0;" edge="1" parent="1" source="_bG7CvbPy4RuLaw3PVnU-8">
          <mxGeometry width="50" height="50" relative="1" as="geometry">
            <mxPoint x="510" y="1200" as="sourcePoint" />
            <mxPoint x="510" y="1220.7106781186549" as="targetPoint" />
          </mxGeometry>
        </mxCell>
        <mxCell id="_bG7CvbPy4RuLaw3PVnU-11" style="edgeStyle=orthogonalEdgeStyle;rounded=0;orthogonalLoop=1;jettySize=auto;html=1;exitX=0.5;exitY=1;exitDx=0;exitDy=0;entryX=0.5;entryY=1;entryDx=0;entryDy=0;" edge="1" parent="1" source="_bG7CvbPy4RuLaw3PVnU-10" target="_bG7CvbPy4RuLaw3PVnU-2">
          <mxGeometry relative="1" as="geometry" />
        </mxCell>
        <mxCell id="_bG7CvbPy4RuLaw3PVnU-10" value="last&amp;nbsp; = temp" style="rounded=0;whiteSpace=wrap;html=1;" vertex="1" parent="1">
          <mxGeometry x="450" y="1220" width="120" height="60" as="geometry" />
        </mxCell>
        <mxCell id="_bG7CvbPy4RuLaw3PVnU-12" value="" style="endArrow=classic;html=1;rounded=0;" edge="1" parent="1" source="_bG7CvbPy4RuLaw3PVnU-2">
          <mxGeometry width="50" height="50" relative="1" as="geometry">
            <mxPoint x="229.28932188134524" y="910" as="sourcePoint" />
            <mxPoint x="229.28932188134524" y="860" as="targetPoint" />
          </mxGeometry>
        </mxCell>
        <mxCell id="_bG7CvbPy4RuLaw3PVnU-13" value="false" style="rounded=0;whiteSpace=wrap;html=1;" vertex="1" parent="1">
          <mxGeometry x="110" y="830" width="120" height="60" as="geometry" />
        </mxCell>
        <mxCell id="_bG7CvbPy4RuLaw3PVnU-14" value="" style="endArrow=classic;html=1;rounded=0;" edge="1" parent="1" source="_bG7CvbPy4RuLaw3PVnU-13">
          <mxGeometry width="50" height="50" relative="1" as="geometry">
            <mxPoint x="170" y="940" as="sourcePoint" />
            <mxPoint x="170" y="960.7106781186548" as="targetPoint" />
          </mxGeometry>
        </mxCell>
        <mxCell id="_bG7CvbPy4RuLaw3PVnU-15" value="end" style="ellipse;whiteSpace=wrap;html=1;" vertex="1" parent="1">
          <mxGeometry x="110" y="1460" width="120" height="80" as="geometry" />
        </mxCell>
        <mxCell id="_bG7CvbPy4RuLaw3PVnU-16" value="return cur" style="rounded=0;whiteSpace=wrap;html=1;" vertex="1" parent="1">
          <mxGeometry x="110" y="960" width="120" height="60" as="geometry" />
        </mxCell>
        <mxCell id="_bG7CvbPy4RuLaw3PVnU-17" value="" style="endArrow=classic;html=1;rounded=0;entryX=0.5;entryY=0;entryDx=0;entryDy=0;" edge="1" parent="1" source="_bG7CvbPy4RuLaw3PVnU-16" target="_bG7CvbPy4RuLaw3PVnU-15">
          <mxGeometry width="50" height="50" relative="1" as="geometry">
            <mxPoint x="170" y="1070" as="sourcePoint" />
            <mxPoint x="170" y="1090.7106781186549" as="targetPoint" />
          </mxGeometry>
        </mxCell>
      </root>
    </mxGraphModel>
  </diagram>
  <diagram id="PUe7DH3YFH1sVLP5pEmV" name="isValid">
    <mxGraphModel grid="1" page="1" gridSize="10" guides="1" tooltips="1" connect="1" arrows="1" fold="1" pageScale="1" pageWidth="3500" pageHeight="3300" math="0" shadow="0">
      <root>
        <mxCell id="0" />
        <mxCell id="1" parent="0" />
        <mxCell id="4tSD-5qZeBVv9XVzT0F6-1" value="Start" style="ellipse;whiteSpace=wrap;html=1;" vertex="1" parent="1">
          <mxGeometry x="390" width="120" height="80" as="geometry" />
        </mxCell>
        <mxCell id="4tSD-5qZeBVv9XVzT0F6-2" value="" style="endArrow=classic;html=1;rounded=0;" edge="1" parent="1" source="4tSD-5qZeBVv9XVzT0F6-1">
          <mxGeometry width="50" height="50" relative="1" as="geometry">
            <mxPoint x="450" y="130" as="sourcePoint" />
            <mxPoint x="450" y="150.71067811865476" as="targetPoint" />
          </mxGeometry>
        </mxCell>
        <mxCell id="4tSD-5qZeBVv9XVzT0F6-3" value="string strInput (this is the parameter of the method)" style="rounded=0;whiteSpace=wrap;html=1;" vertex="1" parent="1">
          <mxGeometry x="390" y="150" width="120" height="60" as="geometry" />
        </mxCell>
        <mxCell id="4tSD-5qZeBVv9XVzT0F6-4" value="" style="endArrow=classic;html=1;rounded=0;" edge="1" parent="1" source="4tSD-5qZeBVv9XVzT0F6-3">
          <mxGeometry width="50" height="50" relative="1" as="geometry">
            <mxPoint x="450" y="260" as="sourcePoint" />
            <mxPoint x="450" y="280.71067811865476" as="targetPoint" />
          </mxGeometry>
        </mxCell>
        <mxCell id="4tSD-5qZeBVv9XVzT0F6-5" value="if strInput can be parsed as a integer" style="rhombus;whiteSpace=wrap;html=1;" vertex="1" parent="1">
          <mxGeometry x="410" y="410" width="80" height="80" as="geometry" />
        </mxCell>
        <mxCell id="4tSD-5qZeBVv9XVzT0F6-6" value="attempt to parse strInput for a integer" style="rounded=0;whiteSpace=wrap;html=1;" vertex="1" parent="1">
          <mxGeometry x="390" y="280" width="120" height="60" as="geometry" />
        </mxCell>
        <mxCell id="4tSD-5qZeBVv9XVzT0F6-7" value="" style="endArrow=classic;html=1;rounded=0;" edge="1" parent="1" source="4tSD-5qZeBVv9XVzT0F6-6">
          <mxGeometry width="50" height="50" relative="1" as="geometry">
            <mxPoint x="450" y="390" as="sourcePoint" />
            <mxPoint x="450" y="410.71067811865476" as="targetPoint" />
          </mxGeometry>
        </mxCell>
        <mxCell id="4tSD-5qZeBVv9XVzT0F6-8" value="" style="endArrow=classic;html=1;rounded=0;" edge="1" parent="1" source="4tSD-5qZeBVv9XVzT0F6-5">
          <mxGeometry width="50" height="50" relative="1" as="geometry">
            <mxPoint x="490" y="500" as="sourcePoint" />
            <mxPoint x="560.7106781186548" y="450" as="targetPoint" />
          </mxGeometry>
        </mxCell>
        <mxCell id="4tSD-5qZeBVv9XVzT0F6-9" value="true" style="rounded=0;whiteSpace=wrap;html=1;" vertex="1" parent="1">
          <mxGeometry x="560" y="420" width="120" height="60" as="geometry" />
        </mxCell>
        <mxCell id="4tSD-5qZeBVv9XVzT0F6-10" value="" style="endArrow=classic;html=1;rounded=0;" edge="1" parent="1" source="4tSD-5qZeBVv9XVzT0F6-5">
          <mxGeometry width="50" height="50" relative="1" as="geometry">
            <mxPoint x="339.28932188134524" y="500" as="sourcePoint" />
            <mxPoint x="339.28932188134524" y="450" as="targetPoint" />
          </mxGeometry>
        </mxCell>
        <mxCell id="4tSD-5qZeBVv9XVzT0F6-11" value="false" style="rounded=0;whiteSpace=wrap;html=1;" vertex="1" parent="1">
          <mxGeometry x="220" y="420" width="120" height="60" as="geometry" />
        </mxCell>
        <mxCell id="4tSD-5qZeBVv9XVzT0F6-12" value="" style="endArrow=classic;html=1;rounded=0;" edge="1" parent="1" source="4tSD-5qZeBVv9XVzT0F6-9">
          <mxGeometry width="50" height="50" relative="1" as="geometry">
            <mxPoint x="620" y="530" as="sourcePoint" />
            <mxPoint x="620" y="550.7106781186548" as="targetPoint" />
          </mxGeometry>
        </mxCell>
        <mxCell id="4tSD-5qZeBVv9XVzT0F6-13" value="if strInput &amp;gt; 0" style="rhombus;whiteSpace=wrap;html=1;" vertex="1" parent="1">
          <mxGeometry x="580" y="550" width="80" height="80" as="geometry" />
        </mxCell>
        <mxCell id="4tSD-5qZeBVv9XVzT0F6-14" value="" style="endArrow=classic;html=1;rounded=0;" edge="1" parent="1" source="4tSD-5qZeBVv9XVzT0F6-13">
          <mxGeometry width="50" height="50" relative="1" as="geometry">
            <mxPoint x="660" y="640" as="sourcePoint" />
            <mxPoint x="730.7106781186548" y="590" as="targetPoint" />
          </mxGeometry>
        </mxCell>
        <mxCell id="4tSD-5qZeBVv9XVzT0F6-15" value="" style="endArrow=classic;html=1;rounded=0;" edge="1" parent="1" source="4tSD-5qZeBVv9XVzT0F6-13">
          <mxGeometry width="50" height="50" relative="1" as="geometry">
            <mxPoint x="509.28932188134524" y="640" as="sourcePoint" />
            <mxPoint x="509.28932188134524" y="590" as="targetPoint" />
          </mxGeometry>
        </mxCell>
        <mxCell id="4tSD-5qZeBVv9XVzT0F6-16" value="true" style="rounded=0;whiteSpace=wrap;html=1;" vertex="1" parent="1">
          <mxGeometry x="730" y="560" width="120" height="60" as="geometry" />
        </mxCell>
        <mxCell id="4tSD-5qZeBVv9XVzT0F6-17" value="false" style="rounded=0;whiteSpace=wrap;html=1;" vertex="1" parent="1">
          <mxGeometry x="390" y="560" width="120" height="60" as="geometry" />
        </mxCell>
        <mxCell id="4tSD-5qZeBVv9XVzT0F6-18" value="" style="endArrow=classic;html=1;rounded=0;" edge="1" parent="1" source="4tSD-5qZeBVv9XVzT0F6-16">
          <mxGeometry width="50" height="50" relative="1" as="geometry">
            <mxPoint x="790" y="670" as="sourcePoint" />
            <mxPoint x="790" y="690.7106781186548" as="targetPoint" />
          </mxGeometry>
        </mxCell>
        <mxCell id="4tSD-5qZeBVv9XVzT0F6-25" style="edgeStyle=orthogonalEdgeStyle;rounded=0;orthogonalLoop=1;jettySize=auto;html=1;exitX=0.5;exitY=1;exitDx=0;exitDy=0;entryX=0.5;entryY=0;entryDx=0;entryDy=0;" edge="1" parent="1" source="4tSD-5qZeBVv9XVzT0F6-19" target="4tSD-5qZeBVv9XVzT0F6-24">
          <mxGeometry relative="1" as="geometry" />
        </mxCell>
        <mxCell id="4tSD-5qZeBVv9XVzT0F6-19" value="return true" style="rounded=0;whiteSpace=wrap;html=1;" vertex="1" parent="1">
          <mxGeometry x="730" y="690" width="120" height="60" as="geometry" />
        </mxCell>
        <mxCell id="4tSD-5qZeBVv9XVzT0F6-20" value="" style="endArrow=classic;html=1;rounded=0;" edge="1" parent="1" source="4tSD-5qZeBVv9XVzT0F6-17">
          <mxGeometry width="50" height="50" relative="1" as="geometry">
            <mxPoint x="450" y="670" as="sourcePoint" />
            <mxPoint x="450" y="690.7106781186548" as="targetPoint" />
          </mxGeometry>
        </mxCell>
        <mxCell id="4tSD-5qZeBVv9XVzT0F6-26" style="edgeStyle=orthogonalEdgeStyle;rounded=0;orthogonalLoop=1;jettySize=auto;html=1;exitX=0.5;exitY=1;exitDx=0;exitDy=0;" edge="1" parent="1" source="4tSD-5qZeBVv9XVzT0F6-21">
          <mxGeometry relative="1" as="geometry">
            <mxPoint x="790" y="850" as="targetPoint" />
          </mxGeometry>
        </mxCell>
        <mxCell id="4tSD-5qZeBVv9XVzT0F6-21" value="return false" style="rounded=0;whiteSpace=wrap;html=1;" vertex="1" parent="1">
          <mxGeometry x="390" y="690" width="120" height="60" as="geometry" />
        </mxCell>
        <mxCell id="4tSD-5qZeBVv9XVzT0F6-22" value="" style="endArrow=classic;html=1;rounded=0;" edge="1" parent="1" source="4tSD-5qZeBVv9XVzT0F6-11">
          <mxGeometry width="50" height="50" relative="1" as="geometry">
            <mxPoint x="280" y="530" as="sourcePoint" />
            <mxPoint x="280" y="550.7106781186548" as="targetPoint" />
          </mxGeometry>
        </mxCell>
        <mxCell id="4tSD-5qZeBVv9XVzT0F6-27" style="edgeStyle=orthogonalEdgeStyle;rounded=0;orthogonalLoop=1;jettySize=auto;html=1;exitX=0.5;exitY=1;exitDx=0;exitDy=0;" edge="1" parent="1" source="4tSD-5qZeBVv9XVzT0F6-23">
          <mxGeometry relative="1" as="geometry">
            <mxPoint x="790" y="850" as="targetPoint" />
            <Array as="points">
              <mxPoint x="280" y="800" />
              <mxPoint x="791" y="800" />
              <mxPoint x="791" y="850" />
            </Array>
          </mxGeometry>
        </mxCell>
        <mxCell id="4tSD-5qZeBVv9XVzT0F6-23" value="return false" style="rounded=0;whiteSpace=wrap;html=1;" vertex="1" parent="1">
          <mxGeometry x="220" y="550" width="120" height="60" as="geometry" />
        </mxCell>
        <mxCell id="4tSD-5qZeBVv9XVzT0F6-24" value="End" style="ellipse;whiteSpace=wrap;html=1;" vertex="1" parent="1">
          <mxGeometry x="730" y="850" width="120" height="80" as="geometry" />
        </mxCell>
      </root>
    </mxGraphModel>
  </diagram>
</mxfile>
